<?xml version="1.0" encoding="utf-8"?>
<!-- Generator: Adobe Illustrator 16.0.0, SVG Export Plug-In . SVG Version: 6.00 Build 0)  -->
<!DOCTYPE svg PUBLIC "-//W3C//DTD SVG 1.0//EN" "http://www.w3.org/TR/2001/REC-SVG-20010904/DTD/svg10.dtd">
<svg version="1.0" id="Capa_2" xmlns="http://www.w3.org/2000/svg" xmlns:xlink="http://www.w3.org/1999/xlink" x="0px" y="0px"
	 width="127.5px" height="117.89px" viewBox="0 0 127.5 117.89" enable-background="new 0 0 127.5 117.89" xml:space="preserve">
<g>
	<line fill="#FFFFFF" stroke="#FFFFFF" stroke-miterlimit="10" x1="25.563" y1="24.938" x2="80.063" y2="57.992"/>
	<line fill="#FFFFFF" stroke="#FFFFFF" stroke-miterlimit="10" x1="86.313" y1="4.438" x2="81.313" y2="56.438"/>
	<line fill="#FFFFFF" stroke="#FFFFFF" stroke-miterlimit="10" x1="86.313" y1="4.438" x2="121.313" y2="56.438"/>
	<line fill="#FFFFFF" stroke="#FFFFFF" stroke-miterlimit="10" x1="80.063" y1="57.992" x2="123.063" y2="58.43"/>
	<line fill="#FFFFFF" stroke="#FFFFFF" stroke-miterlimit="10" x1="22.563" y1="23.188" x2="85.063" y2="4.438"/>
	<line fill="#FFFFFF" stroke="#FFFFFF" stroke-miterlimit="10" x1="81.313" y1="60.438" x2="86.313" y2="114.188"/>
	<line fill="#FFFFFF" stroke="#FFFFFF" stroke-miterlimit="10" x1="22.563" y1="93.688" x2="81.313" y2="58.43"/>
	<line fill="#FFFFFF" stroke="#FFFFFF" stroke-miterlimit="10" x1="4.813" y1="57.992" x2="22.563" y2="93.688"/>
	<line fill="#FFFFFF" stroke="#FFFFFF" stroke-miterlimit="10" x1="4.813" y1="57.992" x2="22.563" y2="23.188"/>
	<line fill="#FFFFFF" stroke="#FFFFFF" stroke-miterlimit="10" x1="4.813" y1="57.992" x2="39.813" y2="10.938"/>
	<line fill="#FFFFFF" stroke="#FFFFFF" stroke-miterlimit="10" x1="39.813" y1="10.938" x2="93.313" y2="29.188"/>
	<line fill="#FFFFFF" stroke="#FFFFFF" stroke-miterlimit="10" x1="93.313" y1="29.188" x2="123.063" y2="60.438"/>
	<line fill="#FFFFFF" stroke="#FFFFFF" stroke-miterlimit="10" x1="86.313" y1="4.438" x2="93.313" y2="30.438"/>
	<line fill="#FFFFFF" stroke="#FFFFFF" stroke-miterlimit="10" x1="93.313" y1="30.438" x2="93.313" y2="85.938"/>
	<line fill="#FFFFFF" stroke="#FFFFFF" stroke-miterlimit="10" x1="93.313" y1="85.938" x2="86.313" y2="114.188"/>
	<line fill="#FFFFFF" stroke="#FFFFFF" stroke-miterlimit="10" x1="86.313" y1="114.188" x2="121.313" y2="58.43"/>
	<line fill="#FFFFFF" stroke="#FFFFFF" stroke-miterlimit="10" x1="121.313" y1="58.43" x2="93.313" y2="85.938"/>
	<line fill="#FFFFFF" stroke="#FFFFFF" stroke-miterlimit="10" x1="93.313" y1="85.938" x2="39.813" y2="105.938"/>
	<line fill="#FFFFFF" stroke="#FFFFFF" stroke-miterlimit="10" x1="39.813" y1="105.938" x2="49.313" y2="57.992"/>
	<line fill="#FFFFFF" stroke="#FFFFFF" stroke-miterlimit="10" x1="49.313" y1="57.992" x2="39.813" y2="9.688"/>
	<line fill="#FFFFFF" stroke="#FFFFFF" stroke-miterlimit="10" x1="49.313" y1="57.992" x2="93.313" y2="85.938"/>
	<line fill="#FFFFFF" stroke="#FFFFFF" stroke-miterlimit="10" x1="86.313" y1="114.188" x2="22.563" y2="93.688"/>
	<line fill="#FFFFFF" stroke="#FFFFFF" stroke-miterlimit="10" x1="22.563" y1="93.688" x2="22.563" y2="23.188"/>
	<line fill="#FFFFFF" stroke="#FFFFFF" stroke-miterlimit="10" x1="4.813" y1="57.992" x2="49.313" y2="57.992"/>
	<line fill="#FFFFFF" stroke="#FFFFFF" stroke-miterlimit="10" x1="49.313" y1="57.992" x2="93.313" y2="29.188"/>
	<line fill="#FFFFFF" stroke="#FFFFFF" stroke-miterlimit="10" x1="39.813" y1="10.938" x2="85.063" y2="4.438"/>
	<line fill="#FFFFFF" stroke="#FFFFFF" stroke-miterlimit="10" x1="39.813" y1="105.938" x2="86.313" y2="114.188"/>
	<line fill="#FFFFFF" stroke="#FFFFFF" stroke-miterlimit="10" x1="39.813" y1="107.438" x2="23.688" y2="94.049"/>
	<line fill="#FFFFFF" stroke="#FFFFFF" stroke-miterlimit="10" x1="6.313" y1="57.992" x2="39.813" y2="105.938"/>
	<circle fill="#FFFFFF" stroke="#FFFFFF" stroke-miterlimit="10" cx="23.688" cy="23.188" r="3.813"/>
	<circle fill="#FFFFFF" stroke="#FFFFFF" stroke-miterlimit="10" cx="4.813" cy="57.992" r="3.813"/>
	<circle fill="#FFFFFF" stroke="#FFFFFF" stroke-miterlimit="10" cx="22.563" cy="94.049" r="3.813"/>
	<circle fill="#FFFFFF" stroke="#FFFFFF" stroke-miterlimit="10" cx="40.75" cy="107.438" r="3.813"/>
	<circle fill="#FFFFFF" stroke="#FFFFFF" stroke-miterlimit="10" cx="86.313" cy="112.938" r="3.813"/>
	<circle fill="#FFFFFF" stroke="#FFFFFF" stroke-miterlimit="10" cx="122.688" cy="58.617" r="3.438"/>
	<circle fill="#FFFFFF" stroke="#FFFFFF" stroke-miterlimit="10" cx="92.938" cy="29.375" r="3.438"/>
	<circle fill="#FFFFFF" stroke="#FFFFFF" stroke-miterlimit="10" cx="80.063" cy="58.617" r="3.438"/>
	<circle fill="#FFFFFF" stroke="#FFFFFF" stroke-miterlimit="10" cx="92.938" cy="85.938" r="3.438"/>
	<circle fill="#FFFFFF" stroke="#FFFFFF" stroke-miterlimit="10" cx="48" cy="57.992" r="3.438"/>
	<circle fill="#FFFFFF" stroke="#FFFFFF" stroke-miterlimit="10" cx="40.75" cy="9.688" r="3.438"/>
	<circle fill="#FFFFFF" stroke="#FFFFFF" stroke-miterlimit="10" cx="86.313" cy="4.438" r="3.438"/>
	<line fill="#FFFFFF" stroke="#FFFFFF" stroke-miterlimit="10" x1="4.813" y1="57.992" x2="39.813" y2="105.938"/>
</g>
</svg>